<?xml version="1.0" standalone="no"?><!DOCTYPE svg PUBLIC "-//W3C//DTD SVG 1.1//EN" "http://www.w3.org/Graphics/SVG/1.1/DTD/svg11.dtd"><svg t="1603778398153" class="icon" viewBox="0 0 1024 1024" version="1.1" xmlns="http://www.w3.org/2000/svg" p-id="1929" width="32" height="32" xmlns:xlink="http://www.w3.org/1999/xlink"><defs><style type="text/css"></style></defs><path d="M512 72c59.4 0 117 11.6 171.2 34.5 52.4 22.2 99.4 53.9 139.9 94.3 40.4 40.4 72.2 87.5 94.3 139.9C940.4 395 952 452.6 952 512s-11.6 117-34.5 171.2c-22.2 52.4-53.9 99.4-94.3 139.9-40.4 40.4-87.5 72.2-139.9 94.3C629 940.4 571.4 952 512 952s-117-11.6-171.2-34.5c-52.4-22.2-99.4-53.9-139.9-94.3-40.4-40.4-72.2-87.5-94.3-139.9C83.6 629 72 571.4 72 512s11.6-117 34.5-171.2c22.2-52.4 53.9-99.4 94.3-139.9 40.4-40.4 87.5-72.2 139.9-94.3C395 83.6 452.6 72 512 72m0-72C229.2 0 0 229.2 0 512s229.2 512 512 512 512-229.2 512-512S794.8 0 512 0z" p-id="1930"></path><path d="M425 714.9c-20.7 0-40.2-8.1-54.8-22.7L222.4 544.4c-14.1-14.1-14.1-36.9 0-50.9 14.1-14.1 36.9-14.1 50.9 0l147.8 147.8c1.3 1.3 2.9 1.6 3.9 1.6s2.6-0.3 3.9-1.6l321.7-321.6c14.1-14.1 36.9-14.1 50.9 0 14.1 14.1 14.1 36.9 0 50.9L479.9 692.2c-14.7 14.6-34.1 22.7-54.9 22.7z" p-id="1931"></path></svg>